<?xml version="1.0" encoding="UTF-8"?><svg id="Layer_1" xmlns="http://www.w3.org/2000/svg" viewBox="0 0 236.89 167.87"><path d="M65.39,52.75c12.27-1.86,24.54-3.73,38.08-5.78-7.75-10.54-15.05-20.47-22.36-30.41l.68-.84c9.87,7.24,19.73,14.49,30.51,22.4,2.01-13.21,3.91-25.61,5.8-38.01l.82-.1c1.92,12.41,3.83,24.82,5.88,38.1,10.81-7.95,20.9-15.36,30.98-22.77l.59,.65c-7.41,10.09-14.82,20.18-22.76,30.98,13.48,2.05,25.93,3.94,38.37,5.82l.11,.76c-12.5,1.91-25.01,3.83-38.51,5.9,7.89,10.7,15.29,20.74,22.7,30.78l-.74,.67c-9.98-7.35-19.96-14.7-30.74-22.65-2.07,13.44-4,25.99-5.93,38.55l-.71-.05c-1.89-12.43-3.77-24.87-5.84-38.49-10.89,7.99-20.92,15.37-30.96,22.74l-.65-.63c7.42-10.08,14.85-20.17,22.78-30.93-13.36-2.04-25.76-3.93-38.15-5.83l.06-.86Z"/><path d="M236.89,167.63c-79.09-35.9-157.94-35.79-236.89,.23,35.08-24.23,72.96-40.59,116.18-41.24,45.01-.68,84.35,16.05,120.71,41Z"/></svg>